<svg xmlns="http://www.w3.org/2000/svg" viewBox="0 0 426.21 53.51"><defs><style>.cls-1{fill:#efeff0;}</style></defs><g id="Layer_2" data-name="Layer 2"><g id="Layer_1-2" data-name="Layer 1"><path class="cls-1" d="M35.65,52.57h-9S23.59,34,23.12,30.94c-.74-4.52-1-7.15-1.42-10.52-.4,3.37-.74,6-1.35,10.52-.4,3-3.77,21.63-3.77,21.63H7.41L0,.81H9.44c.33,2.56,1.82,16.38,2.22,19.88.2,1.82.74,8.36,1.15,12.81.6-4.45,1.48-11,1.68-12.74.47-3.57,2.63-17.39,3-20h8.83c.47,3,2.49,16.51,2.89,20,.34,2.69,1.08,8.29,1.62,12.74.54-4.45,1.08-10,1.35-12.74.34-3.51,2-17,2.43-20H43.4Z"/><path class="cls-1" d="M47,52.57V.81h22.3V8.9H56.82v13h11v8.29h-11V44.42H70.77v8.15Z"/><path class="cls-1" d="M87.62,53.51c-8.9,0-13.21-4.11-13.21-13.07a20.38,20.38,0,0,1,.87-5.66l8.9-.34a25.49,25.49,0,0,0-.61,5.32c0,4.72.68,6.81,4.11,6.81,3.17,0,4.32-1.48,4.32-6.6,0-5.39-1-7.55-6.61-10.32-.94-.47-2.83-1.28-4.65-2.15C75.42,25,74.14,20,74.14,14c0-8.63,4-14,13-14,8,0,12.2,4.52,12.2,12.06a20.68,20.68,0,0,1-.67,4.45l-8.56.54a22.87,22.87,0,0,0,.4-4c0-4.92-.74-6.47-3.63-6.47s-3.38,2-3.38,5.32c0,4.58,1,6.2,4.79,8.09,1.48.74,3.5,1.62,5.32,2.56,5.94,3.1,8.16,7.89,8.16,15.64C101.77,48.26,97.73,53.51,87.62,53.51Z"/><path class="cls-1" d="M106.89,52.57V.81h9.84v43.4h12.74v8.36Z"/><path class="cls-1" d="M133.51,52.57V.81h22.31V8.9H143.35v13h11v8.29h-11V44.42h14v8.15Z"/><path class="cls-1" d="M179.14,32.15V52.57H169.3V32.15L158.85.81H169l5.66,20,5.46-20h9.23Z"/><path class="cls-1" d="M218.09,8.9V22.65h10.52v8.29H218.09V52.57h-9.84V.81h21.84V8.9Z"/><path class="cls-1" d="M248,53.51c-10.65,0-13.75-5.79-13.75-14.69V.81h9.84v37.4c0,4.86.4,7.69,3.91,7.69s3.91-3,3.91-7.69V.81h9.84v38C261.77,47.72,258.67,53.51,248,53.51Z"/><path class="cls-1" d="M266.69,52.57V.81h9.84v43.4h12.74v8.36Z"/><path class="cls-1" d="M315.82,52.57l-2.22-4c-1.69,2.83-3.38,4.92-8.09,4.92-10.05,0-14.63-5.46-14.63-25.14C290.88,5.73,295,0,306.11,0,316.16,0,319,5.8,319,15.7c0,.88-.07,2.5-.14,3.17l-9.23.27a25.78,25.78,0,0,0,.13-3.23c0-5.94-.8-9.44-3.77-9.44-4.38,0-4.92,3.57-4.92,21.63,0,16.58,1.08,18.67,4.92,18.67,4.31,0,5.32-3.37,5.32-10.44,0-.95,0-1.62-.06-3.37h-5.13V25.48h13.68V52.57Z"/><path class="cls-1" d="M324.24.81h9.84v20h7.82V.81h9.84V52.57H341.9V29.05h-7.82V52.57h-9.84Z"/><path class="cls-1" d="M370.41,53.51c-10.65,0-13.75-5.79-13.75-14.69V.81h9.84v37.4c0,4.86.41,7.69,3.91,7.69s3.91-3,3.91-7.69V.81h9.84v38C384.16,47.72,381.06,53.51,370.41,53.51Z"/><path class="cls-1" d="M417.25,52.57V29.05c0-7.82.13-9.5.2-14.43-.54,4.93-.67,8.56-1.61,14.43-1.29,7.88-4,23.52-4,23.52h-8.29s-2.7-15.64-4-23.52a136.66,136.66,0,0,1-1.75-14.43c.2,5.13.2,6.61.2,14.43V52.57h-9V.81h12.6c1.69,9.57,3.24,20,4.52,26.82.54,3.1.74,4.45,1.41,8.63.61-4.11.95-5.86,1.42-8.56,1.28-6.87,3-17.46,4.72-26.89h12.46V52.57Z"/></g></g></svg>