<?xml version="1.0" encoding="utf-8"?>
<!-- Generator: Adobe Illustrator 26.0.1, SVG Export Plug-In . SVG Version: 6.00 Build 0)  -->
<svg version="1.1" id="Layer_1" xmlns="http://www.w3.org/2000/svg" xmlns:xlink="http://www.w3.org/1999/xlink" x="0px" y="0px"
	 viewBox="0 0 422.9 53.5" style="enable-background:new 0 0 422.9 53.5;" xml:space="preserve">
<style type="text/css">
	.st0{fill:#EEEFEF;}
</style>
<g>
	<path class="st0" d="M36.4,52.5h-8.8c0,0-3.1-18.3-3.5-21.3c-0.7-4.4-1-7-1.4-10.3c-0.4,3.3-0.7,5.9-1.3,10.3
		c-0.4,3-3.7,21.3-3.7,21.3h-9L1.3,1.6h9.3c0.3,2.5,1.8,16.1,2.2,19.6c0.2,1.8,0.7,8.2,1.1,12.6c0.6-4.4,1.5-10.8,1.7-12.5
		c0.5-3.5,2.6-17.1,2.9-19.6h8.7c0.5,3,2.5,16.2,2.9,19.6c0.3,2.7,1.1,8.2,1.6,12.5c0.5-4.4,1.1-9.8,1.3-12.5
		c0.3-3.4,2-16.8,2.4-19.6H44L36.4,52.5z"/>
	<path class="st0" d="M47.5,52.5V1.6h21.9v8H57.2v12.8H68v8.2H57.2v14h13.7v8H47.5z"/>
	<path class="st0" d="M87.5,53.5c-8.8,0-13-4-13-12.9c0-1.9,0.4-4.1,0.9-5.6l8.8-0.3c-0.3,1.3-0.6,3.6-0.6,5.2c0,4.6,0.7,6.7,4,6.7
		c3.1,0,4.2-1.5,4.2-6.5c0-5.3-0.9-7.4-6.5-10.1c-0.9-0.5-2.8-1.3-4.6-2.1c-5.2-2.5-6.5-7.4-6.5-13.3c0-8.5,3.9-13.8,12.8-13.8
		c7.9,0,12,4.4,12,11.9c0,1.3-0.3,3-0.7,4.4l-8.4,0.5c0.2-0.9,0.4-2.7,0.4-4c0-4.8-0.7-6.4-3.6-6.4c-2.8,0-3.3,1.9-3.3,5.2
		c0,4.5,0.9,6.1,4.7,8c1.5,0.7,3.4,1.6,5.2,2.5c5.8,3.1,8,7.8,8,15.4C101.4,48.3,97.4,53.5,87.5,53.5z"/>
	<path class="st0" d="M106.4,52.5V1.6h9.7v42.7h12.5v8.2H106.4z"/>
	<path class="st0" d="M132.6,52.5V1.6h21.9v8h-12.3v12.8h10.8v8.2h-10.8v14H156v8H132.6z"/>
	<path class="st0" d="M177.5,32.4v20.1h-9.7V32.4L157.6,1.6h10l5.6,19.7l5.4-19.7h9.1L177.5,32.4z"/>
	<path class="st0" d="M215.8,9.6v13.5h10.3v8.2h-10.3v21.3h-9.7V1.6h21.5v8H215.8z"/>
	<path class="st0" d="M245.3,53.5c-10.5,0-13.5-5.7-13.5-14.5c0-14.9,0-37.4,0-37.4h9.7c0,0,0,22.2,0,36.8c0,4.8,0.4,7.6,3.8,7.6
		c3.3,0,3.8-3,3.8-7.6c0-14.6,0-36.8,0-36.8h9.7c0,0,0,22.5,0,37.4C258.8,47.8,255.8,53.5,245.3,53.5z"/>
	<path class="st0" d="M263.6,52.5V1.6h9.7v42.7h12.5v8.2H263.6z"/>
	<path class="st0" d="M312,52.5l-2.2-3.9c-1.7,2.8-3.3,4.8-8,4.8c-9.9,0-14.4-5.4-14.4-24.7c0-22.3,4-27.9,15-27.9
		c9.9,0,12.7,5.7,12.7,15.4c0,0.9-0.1,2.5-0.1,3.1l-9.1,0.3c0.1-1,0.1-2.1,0.1-3.2c0-5.8-0.8-9.3-3.7-9.3c-4.3,0-4.8,3.5-4.8,21.3
		c0,16.3,1.1,18.4,4.8,18.4c4.2,0,5.2-3.3,5.2-10.3c0-0.9,0-1.6-0.1-3.3h-5v-7.4h13.5v26.7H312z"/>
	<path class="st0" d="M320.3,1.6h9.7v19.6h7.7V1.6h9.7v50.9h-9.7V29.4h-7.7v23.1h-9.7V1.6z"/>
	<path class="st0" d="M365.7,53.5c-10.5,0-13.5-5.7-13.5-14.5c0-14.9,0-37.4,0-37.4h9.7c0,0,0,22.2,0,36.8c0,4.8,0.4,7.6,3.8,7.6
		c3.3,0,3.8-3,3.8-7.6c0-14.6,0-36.8,0-36.8h9.7c0,0,0,22.5,0,37.4C379.2,47.8,376.2,53.5,365.7,53.5z"/>
	<path class="st0" d="M411.8,52.5c0,0,0-15.6,0-23.1c0-7.7,0.1-9.3,0.2-14.2c-0.5,4.8-0.7,8.4-1.6,14.2c-1.3,7.8-3.9,23.1-3.9,23.1
		h-8.2c0,0-2.7-15.4-3.9-23.1c-0.9-5.7-1.4-9.1-1.7-14.2c0.2,5,0.2,6.5,0.2,14.2c0,7.6,0,23.1,0,23.1H384V1.6h12.4
		c1.7,9.4,3.2,19.6,4.4,26.4c0.5,3.1,0.7,4.4,1.4,8.5c0.6-4,0.9-5.8,1.4-8.4c1.3-6.8,2.9-17.2,4.6-26.5h12.3v50.9H411.8z"/>
</g>
</svg>
